<svg xmlns="http://www.w3.org/2000/svg" width="552" height="261.9" viewBox="0 0 552 261.9">
  <g id="Group_16" data-name="Group 16" transform="translate(-767.493 -697.377)">
    <g id="Group_13" data-name="Group 13" transform="translate(981.128 831.67)">
      <path id="Path_111" data-name="Path 111" d="M968.413,785.371q-5.043.216-10.035.426v18.151h10.035Zm39.856,19.714c8.521,0,14.675-5.68,14.675-14.2v-7.817l-9.751.412v7.6c0,3.218-1.7,5.018-4.924,5.018-3.03,0-4.734-1.8-4.734-5.018v-7.187l-10.129.429v6.568C993.407,799.4,999.75,805.085,1008.27,805.085Zm34.368,0c4.26,0,7.952-1.8,9.656-5.4l1.514,4.261h5.4V781.533l-9.75.412v9.315a5.114,5.114,0,0,1-10.225,0v-8.885l-10.13.429V790.6C1029.1,799.119,1034.305,805.085,1042.638,805.085Zm82.651-10.225H1110.8v-15.5q-4.98.21-10.037.424v24.169h24.522ZM907.631,805.085c8.237,0,14.771-5.493,14.771-15.527a20.5,20.5,0,0,0-.135-2.23l-9.993.426a14.6,14.6,0,0,1,.377,3.223c0,3.5-1.7,5.68-5.3,5.68-3.5,0-5.3-2.272-5.3-6.248v-2.221l-9.184.391V790.6C892.862,799.5,898.542,805.085,907.631,805.085Zm75.173-.853h6.154v-2.841a10.021,10.021,0,0,1-1.893-6.438V784.582l-9.658.408v10.532C977.407,800.444,978.922,804.232,982.8,804.232Zm-38.342-17.845-10.035.426v17.136h10.035Zm253.253,18.7c4.261,0,7.952-1.8,9.658-5.4l1.514,4.261h5.4V775l-14.675.618v4.381h4.924V791.26a4.742,4.742,0,0,1-5.111,5.018,4.793,4.793,0,0,1-5.114-5.018V775.836q-4.934.207-10.13.427V790.6C1184.175,799.119,1189.382,805.085,1197.713,805.085Zm-119.572,0c4.26,0,7.952-1.8,9.656-5.4l1.514,4.261h5.4V780.033q-4.848.205-9.749.412V791.26a5.114,5.114,0,0,1-10.225,0V780.878l-10.13.427V790.6C1064.6,799.119,1069.808,805.085,1078.141,805.085Zm-187.172,6.58v5.772h338.365v-5.772Zm286.863-7.717V776.53l-8.993.379v2.613l-.851-2.576-7.812.329,9.893,26.674Zm-21.869-26.5q-4.487.187-9.089.382v26.114h9.089Zm-16.1.678-10.035.422v25.4h10.035Z" transform="translate(-890.969 -774.995)" fill="#ffc11b"/>
    </g>
    <g id="Group_14" data-name="Group 14" transform="translate(979.673 794.493)">
      <path id="Path_112" data-name="Path 112" d="M1077.3,793.745h4.924v.452l9.751-.412v-7.613H1077.3Zm20.734-.216,10.035-.424v-38.46h-10.035Zm-16-26.1v9h9.468v-8.426c0-8.049-5.206-14.487-14.485-14.487s-15.147,6.628-15.147,14.487v27.06q5.084-.213,10.13-.427V767.521a4.692,4.692,0,0,1,5.017-4.924C1080.423,762.6,1082.032,764.775,1082.032,767.425ZM1127.1,792.3l10.035-.424V754.645H1127.1Zm25.94-37.659h-8.9v36.939l9.089-.382V779.45l3.5,9.656.713,1.917c2.635-.111,5.244-.22,7.81-.329l-2.367-7.173Zm13.065,36.014,8.993-.379V754.645H1166.1Zm30.769-4.486v3.19l14.674-.618v-2.573Zm4.734-18.747v9h9.467v-8.426c0-8.049-5.208-14.487-14.485-14.487s-15.148,6.628-15.148,14.487v22.018q5.188-.218,10.13-.427V767.521a4.691,4.691,0,0,1,5.018-4.924C1200,762.6,1201.606,764.775,1201.606,767.425ZM978.175,787.118c4.071-1.516,5.964-4.639,5.964-8.9V767.047c0-8.521-5.4-12.4-12.4-12.4H955.643v44.9l10.035-.426v-8.028H970.6c2.744,0,4.069,2.083,4.069,4.639v3.009l9.658-.41v-2.5A8.875,8.875,0,0,0,978.175,787.118Zm-3.883-8.333c0,3.03-1.325,4.45-3.786,4.45h-4.829V763.259h5.208c2.367,0,3.407,1.422,3.407,4.073Zm-52.353-14.957h9.751v36.735q4.98-.213,10.035-.426V763.829h9.563v-9.184H921.939ZM1041.8,793.745h4.924v1.95l9.751-.412v-9.111H1041.8Zm-151.667,8.583q4.531-.192,9.182-.391v-3.175h-9.182Zm10.224-35.091c0-3.22,1.988-5.113,4.924-5.113,3.218,0,4.829,2.367,4.829,5.87v5.68h9.089v-5.68c0-8.616-5.492-14.487-13.918-14.487-9.753,0-14.675,6.912-14.675,15.433,0,8.045,6.059,15.432,11.267,20.639,4.211,4.436,6.78,7.926,7.672,11.923l9.993-.424c-.761-6.931-5-12.672-10.564-18.411C903.1,776.421,900.352,773.391,900.352,767.237Zm146.177.189v9H1056v-8.426c0-8.049-5.206-14.487-14.485-14.487s-15.148,6.628-15.148,14.487v28.56q5.068-.216,10.13-.427V767.521a4.692,4.692,0,0,1,5.018-4.924C1044.92,762.6,1046.529,764.775,1046.529,767.425Zm-36.07,29.8,9.751-.413v-42.17h-9.751Zm-19.786.836,10.13-.427V754.645h-10.13Z" transform="translate(-890.128 -753.508)" fill="#ffc11b"/>
    </g>
    <g id="Group_15" data-name="Group 15" transform="translate(767.493 697.377)">
      <path id="Path_113" data-name="Path 113" d="M805.334,697.9v2.419c-2.118,0-3.53,1.611-3.53,5.441h3.325v10.985h-7.054V706.87C798.076,701.73,800.6,697.9,805.334,697.9Zm9.371,0v2.419c-2.218,0-3.528,1.611-3.528,5.441H814.4v10.985h-7.054V706.87C807.348,701.73,809.867,697.9,814.7,697.9Z" transform="translate(-745.162 -696.994)" fill="#fffdee"/>
      <path id="Path_114" data-name="Path 114" d="M810.717,765.073V697.959h8.867v67.114Z" transform="translate(-735.932 -696.952)" fill="#fffdee"/>
      <path id="Path_115" data-name="Path 115" d="M818.871,716.8v-2.318c2.118,0,3.526-1.713,3.526-5.542h-3.223V697.959h7.054v9.978C826.228,712.975,823.709,716.8,818.871,716.8Z" transform="translate(-729.978 -696.952)" fill="#fffdee"/>
      <path id="Path_116" data-name="Path 116" d="M826.269,765.073V697.959h8.765v58.75h12.194v8.364Z" transform="translate(-724.576 -696.952)" fill="#fffdee"/>
      <path id="Path_117" data-name="Path 117" d="M840.772,765.073V697.959h8.767v58.75h12.194v8.364Z" transform="translate(-713.987 -696.952)" fill="#fffdee"/>
      <path id="Path_118" data-name="Path 118" d="M875.605,765.073H861.8V697.959h13.7c5.742,0,10.883,3.024,10.883,11.79v12.194c0,4.332-1.512,7.457-5.241,8.867,3.829,1.613,5.341,4.737,5.341,8.969v13.5C886.488,762.15,881.247,765.073,875.605,765.073Zm2.218-55.12c0-2.621-1.009-3.831-2.924-3.831h-4.232v21.262H874.5c2.116,0,3.327-1.31,3.327-4.03Zm.1,28.918c0-2.618-1.31-4.13-3.325-4.13h-3.929V756.91H875c1.914,0,2.92-1.209,2.92-3.829Z" transform="translate(-698.633 -696.952)" fill="#fffdee"/>
      <path id="Path_119" data-name="Path 119" d="M879.333,765.073V697.959H900.8v8.263H888.1v20.255h8.869v7.961H888.1v22.271h12.7v8.364Z" transform="translate(-685.83 -696.952)" fill="#fffdee"/>
      <path id="Path_120" data-name="Path 120" d="M918.451,765.073v-28.82h-8.466v28.82h-8.867V697.959h8.867v29.728h8.466V697.959h8.867v67.114Z" transform="translate(-669.924 -696.952)" fill="#fffdee"/>
      <path id="Path_121" data-name="Path 121" d="M932.584,766.5c-7.559,0-13-5.642-13-13.7V711.082c0-7.962,5.441-13.7,13-13.7s13,5.742,13,13.7V752.8C945.581,760.862,940.141,766.5,932.584,766.5Zm4.13-56.229c0-2.519-1.512-4.334-4.13-4.334s-4.031,1.815-4.031,4.334v43.331c0,2.621,1.41,4.334,4.031,4.334s4.13-1.713,4.13-4.334Z" transform="translate(-656.441 -697.377)" fill="#fffdee"/>
      <path id="Path_122" data-name="Path 122" d="M958.086,765.073l-9.474-32.145-2.72-9.978v42.123h-7.96V697.959h8.263l8.466,32.247,2.519,10.077V697.959h7.86v67.114Z" transform="translate(-643.044 -696.952)" fill="#fffdee"/>
      <path id="Path_123" data-name="Path 123" d="M957.212,765.073V697.959h21.463v8.263h-12.7v20.255h8.869v7.961h-8.869v22.271h12.7v8.364Z" transform="translate(-628.965 -696.952)" fill="#fffdee"/>
      <path id="Path_124" data-name="Path 124" d="M984.28,766.5c-7.961,0-12.8-5.239-12.8-13.7v-7.255h8.063V753.1c0,3.528,1.512,5.644,4.434,5.644,3.123,0,4.635-2.016,4.635-5.341,0-6.249-2.419-11.288-7.054-18.139-4.332-6.146-9.673-15.217-9.673-22.975,0-8.466,4.132-14.914,12.9-14.914,7.255,0,11.992,5.239,11.992,13.7v7.66h-7.962v-7.962c0-3.325-1.41-5.341-4.03-5.341-2.519,0-4.334,1.713-4.334,4.838,0,7.457,2.519,10.985,7.557,18.641,5.14,7.559,9.17,15.118,9.17,22.876C997.179,762.373,990.729,766.5,984.28,766.5Z" transform="translate(-618.545 -697.377)" fill="#fffdee"/>
      <path id="Path_125" data-name="Path 125" d="M1004.749,706.525v58.547h-8.769V706.525h-8.364v-8.566h25.193v8.566Z" transform="translate(-606.764 -696.952)" fill="#fffdee"/>
      <path id="Path_126" data-name="Path 126" d="M1042.009,765.073h-7.758l-4.434-40.208-5.04,40.208h-7.656l-7.66-67.114h8.666l3.729,45.246,5.239-45.246h6.853l4.434,45.246,4.433-45.246h8.061Z" transform="translate(-590.814 -696.952)" fill="#fffdee"/>
      <path id="Path_127" data-name="Path 127" d="M1035.382,765.073V697.959h8.867v67.114Z" transform="translate(-571.887 -696.952)" fill="#fffdee"/>
      <path id="Path_128" data-name="Path 128" d="M1059.911,706.525v58.547h-8.769V706.525h-8.364v-8.566h25.193v8.566Z" transform="translate(-566.486 -696.952)" fill="#fffdee"/>
      <path id="Path_129" data-name="Path 129" d="M1077,765.073v-28.82h-8.464v28.82h-8.867V697.959h8.867v29.728H1077V697.959h8.867v67.114Z" transform="translate(-554.151 -696.952)" fill="#fffdee"/>
      <path id="Path_130" data-name="Path 130" d="M785.933,794.367v26.705h-8.869V794.367l-9.571-40.408h8.867L782,782.78l5.644-28.821h8.564Z" transform="translate(-767.493 -656.062)" fill="#fffdee"/>
      <path id="Path_131" data-name="Path 131" d="M798.258,822.5c-7.559,0-13-5.642-13-13.7V767.082c0-7.962,5.44-13.7,13-13.7s13,5.742,13,13.7V808.8C811.257,816.862,805.817,822.5,798.258,822.5Zm4.132-56.229c0-2.519-1.512-4.334-4.132-4.334s-4.031,1.815-4.031,4.334v43.33c0,2.621,1.412,4.334,4.031,4.334s4.132-1.713,4.132-4.334Z" transform="translate(-754.521 -656.487)" fill="#fffdee"/>
      <path id="Path_132" data-name="Path 132" d="M816.345,822.079c-7.255,0-12.8-5.341-12.8-13.3V753.959h8.867v55.222c0,2.822,1.41,4.435,3.929,4.435,2.722,0,4.132-1.613,4.132-4.435V753.959h8.466V808.78C828.943,816.738,823.6,822.079,816.345,822.079Z" transform="translate(-741.166 -656.062)" fill="#fffdee"/>
      <path id="Path_133" data-name="Path 133" d="M821.257,797.385V786.4h7.054v10.985Z" transform="translate(-728.236 -632.375)" fill="#fffdee"/>
      <path id="Path_134" data-name="Path 134" d="M828.246,797.385V786.4H835.3v10.985Z" transform="translate(-723.133 -632.375)" fill="#fffdee"/>
      <path id="Path_135" data-name="Path 135" d="M835.236,797.385V786.4h7.054v10.985Z" transform="translate(-718.029 -632.375)" fill="#fffdee"/>
      <path id="Path_136" data-name="Path 136" d="M842.634,821.073V753.959H851.5v67.114Z" transform="translate(-712.627 -656.062)" fill="#fffdee"/>
      <path id="Path_137" data-name="Path 137" d="M850.788,772.8v-2.318c2.118,0,3.526-1.713,3.526-5.542h-3.223V753.959h7.054v9.978C858.145,768.975,855.626,772.8,850.788,772.8Z" transform="translate(-706.673 -656.062)" fill="#fffdee"/>
      <path id="Path_138" data-name="Path 138" d="M886,821.073v-50.99l-1.512,13.5-5.341,37.486h-6.753l-5.038-37.486-1.41-13.5v50.99h-7.758V753.959h11.99l4.737,33.96,1.512,13.4,1.51-13.4,4.635-33.96h11.791v67.114Z" transform="translate(-701.271 -656.062)" fill="#fffdee"/>
      <path id="Path_139" data-name="Path 139" d="M1011.868,877.073l-1.209-13h-7.76l-1.51,13h-8.063l8.969-67.114h9.675l8.967,67.114Zm-4.735-49.983-3.225,28.821h5.845Z" transform="translate(-602.596 -615.173)" fill="#fffdee"/>
      <path id="Path_140" data-name="Path 140" d="M1038.237,877.073h-13.8V809.959h13.7c5.742,0,10.883,3.024,10.883,11.789v12.194c0,4.332-1.512,7.457-5.241,8.867,3.829,1.613,5.341,4.737,5.341,8.969v13.5C1049.12,874.15,1043.879,877.073,1038.237,877.073Zm2.217-55.12c0-2.621-1.009-3.831-2.922-3.831H1033.3v21.262h3.829c2.116,0,3.325-1.31,3.325-4.03Zm.1,28.918c0-2.618-1.31-4.13-3.325-4.13H1033.3V868.91h4.334c1.914,0,2.92-1.209,2.92-3.829Z" transform="translate(-579.883 -615.173)" fill="#fffdee"/>
      <path id="Path_141" data-name="Path 141" d="M1041.965,877.073V809.959h8.867v67.114Z" transform="translate(-567.081 -615.173)" fill="#fffdee"/>
      <path id="Path_142" data-name="Path 142" d="M1066.494,818.525v58.547h-8.769V818.525h-8.364v-8.566h25.193v8.566Z" transform="translate(-561.679 -615.173)" fill="#fffdee"/>
      <path id="Path_143" data-name="Path 143" d="M1065.672,828.8v-2.318c2.118,0,3.526-1.713,3.526-5.542h-3.223V809.959h7.054v9.978C1073.029,824.975,1070.51,828.8,1065.672,828.8Zm9.27,0v-2.318c2.218,0,3.628-1.713,3.628-5.542h-3.325V809.959h7.054v9.978C1082.3,824.975,1079.78,828.8,1074.942,828.8Z" transform="translate(-549.771 -615.173)" fill="#fffdee"/>
    </g>
  </g>
</svg>
