<svg xmlns="http://www.w3.org/2000/svg" width="17.675" height="37.875" viewBox="0 0 17.675 37.875">
  <path id="Path_144" data-name="Path 144" d="M1038.005,713.068a1.263,1.263,0,0,0,1.263-1.263V679.5l5.42,5.42a1.262,1.262,0,0,0,1.785-1.785l-7.574-7.575a1.234,1.234,0,0,0-.194-.158,1.012,1.012,0,0,0-.093-.051,1.16,1.16,0,0,0-.124-.065,1.1,1.1,0,0,0-.126-.039,1.069,1.069,0,0,0-.11-.033,1.276,1.276,0,0,0-.494,0,1.074,1.074,0,0,0-.109.033,1.122,1.122,0,0,0-.126.039,1.1,1.1,0,0,0-.123.065,1.009,1.009,0,0,0-.094.051,1.3,1.3,0,0,0-.194.158l-7.574,7.575a1.262,1.262,0,0,0,1.785,1.785l5.42-5.42v32.3A1.263,1.263,0,0,0,1038.005,713.068Z" transform="translate(1046.843 713.068) rotate(180)" fill="#fff7ea"/>
</svg>
