<svg xmlns="http://www.w3.org/2000/svg" width="1160" height="1097.07" viewBox="0 0 1160 1097.07">
  <g id="Group_28" data-name="Group 28" transform="translate(786.339 -19.029)">
    <g id="Layer_1" data-name="Layer 1" transform="translate(-786.339 818.669)">
      <ellipse id="Ellipse_17" data-name="Ellipse 17" cx="573.926" cy="111.173" rx="573.926" ry="111.173" transform="translate(0 75.567) rotate(-3.775)" fill="#e8e8e8" opacity="0.48" style="mix-blend-mode: darken;isolation: isolate"/>
    </g>
    <g id="Layer_3" data-name="Layer 3" transform="translate(-325.2 19.029)">
      <path id="Path_181" data-name="Path 181" d="M-460.779,110.6l73.04,559.231-22.889,83.153,79.748-64.224.378-34.59,34.565-479.185Z" transform="translate(638.476 69.091)" fill="#2e2e2d"/>
      <path id="Path_182" data-name="Path 182" d="M-435.756,122.85l207.7,516.1,6.711,174.629L-156.6,635.017l-28.651-7.031-87.5-525.565Z" transform="translate(662.555 61.217)" fill="#757474"/>
      <path id="Path_183" data-name="Path 183" d="M-162.2,19.029l7.831,204.551s-51.547-9.615-142.841,24.55C-405.322,288.586-551.336,210.4-551.336,210.4l103.5-187.9,146.95-3.465Z" transform="translate(551.336 -19.029)" fill="#ffc11b"/>
      <g id="Group_26" data-name="Group 26" transform="translate(93.408 10.326)">
        <path id="Path_184" data-name="Path 184" d="M-393.884,39.084c-1.35-7.763,3.212-13.353,10.137-14.558,7.164-1.246,13.226,2.5,14.578,10.257,1.37,7.88-3.073,13.449-10.235,14.7C-386.329,50.685-392.512,46.963-393.884,39.084Z" transform="translate(609.211 -24.291)" fill="#ffd400"/>
        <path id="Path_185" data-name="Path 185" d="M-424.123,44.346c-1.35-7.761,3.212-13.351,10.137-14.558,7.164-1.246,13.226,2.5,14.578,10.257,1.372,7.88-3.073,13.449-10.235,14.7C-416.568,55.947-422.751,52.227-424.123,44.346Z" transform="translate(580.113 -19.228)" fill="#ffd400"/>
        <path id="Path_186" data-name="Path 186" d="M-454.361,49.608c-1.352-7.761,3.21-13.351,10.135-14.556,7.164-1.248,13.228,2.494,14.578,10.255,1.372,7.88-3.071,13.451-10.235,14.7C-446.808,61.209-452.991,57.488-454.361,49.608Z" transform="translate(551.015 -14.164)" fill="#ffd400"/>
        <path id="Path_187" data-name="Path 187" d="M-484.6,54.87c-1.352-7.761,3.21-13.351,10.135-14.556,7.164-1.246,13.228,2.494,14.578,10.257,1.372,7.878-3.071,13.449-10.235,14.7C-477.047,66.47-483.23,62.75-484.6,54.87Z" transform="translate(521.917 -9.1)" fill="#ffd400"/>
        <path id="Path_188" data-name="Path 188" d="M-375.991,69.547c-1.35-7.761,3.212-13.351,10.137-14.556,7.162-1.248,13.226,2.494,14.576,10.255,1.372,7.88-3.071,13.451-10.233,14.7C-368.438,81.148-374.619,77.427-375.991,69.547Z" transform="translate(626.429 5.023)" fill="#ffd400"/>
        <path id="Path_189" data-name="Path 189" d="M-406.23,74.809c-1.35-7.761,3.212-13.351,10.137-14.556,7.162-1.246,13.226,2.494,14.576,10.257,1.372,7.879-3.071,13.449-10.233,14.7C-398.677,86.41-404.858,82.689-406.23,74.809Z" transform="translate(597.331 10.087)" fill="#ffd400"/>
        <path id="Path_190" data-name="Path 190" d="M-436.469,80.071c-1.35-7.761,3.212-13.351,10.137-14.556,7.164-1.246,13.226,2.5,14.578,10.257,1.372,7.879-3.073,13.449-10.235,14.7C-428.914,91.671-435.1,87.951-436.469,80.071Z" transform="translate(568.233 15.15)" fill="#ffd400"/>
        <path id="Path_191" data-name="Path 191" d="M-466.708,85.334c-1.35-7.763,3.212-13.353,10.137-14.558,7.164-1.246,13.228,2.5,14.578,10.257,1.372,7.88-3.071,13.449-10.235,14.7C-459.153,96.935-465.336,93.213-466.708,85.334Z" transform="translate(539.135 20.214)" fill="#ffd400"/>
        <path id="Path_192" data-name="Path 192" d="M-496.947,90.6c-1.35-7.761,3.212-13.351,10.139-14.558,7.162-1.246,13.226,2.5,14.576,10.257,1.372,7.88-3.071,13.449-10.235,14.7C-489.392,102.2-495.575,98.477-496.947,90.6Z" transform="translate(510.037 25.277)" fill="#ffd400"/>
        <path id="Path_193" data-name="Path 193" d="M-382.541,104.264c-1.35-7.761,3.212-13.351,10.137-14.556,7.162-1.248,13.226,2.494,14.576,10.255,1.372,7.88-3.071,13.451-10.233,14.7C-374.986,115.865-381.169,112.144-382.541,104.264Z" transform="translate(620.126 38.43)" fill="#ffd400"/>
        <path id="Path_194" data-name="Path 194" d="M-412.78,109.526c-1.35-7.761,3.212-13.351,10.137-14.556,7.162-1.246,13.226,2.494,14.576,10.257,1.372,7.879-3.071,13.449-10.233,14.7C-405.225,121.126-411.408,117.406-412.78,109.526Z" transform="translate(591.028 43.494)" fill="#ffd400"/>
        <path id="Path_195" data-name="Path 195" d="M-443.019,114.788c-1.35-7.761,3.212-13.351,10.137-14.556,7.164-1.246,13.228,2.494,14.578,10.257,1.372,7.879-3.071,13.449-10.235,14.7C-435.464,126.389-441.647,122.668-443.019,114.788Z" transform="translate(561.93 48.557)" fill="#ffd400"/>
        <path id="Path_196" data-name="Path 196" d="M-473.258,120.051c-1.35-7.763,3.212-13.353,10.137-14.558,7.164-1.246,13.228,2.5,14.578,10.257,1.372,7.88-3.071,13.449-10.235,14.7C-465.7,131.65-471.886,127.93-473.258,120.051Z" transform="translate(532.832 53.621)" fill="#ffd400"/>
        <path id="Path_197" data-name="Path 197" d="M-503.5,125.313c-1.35-7.761,3.212-13.353,10.139-14.558,7.162-1.246,13.226,2.5,14.576,10.257,1.372,7.88-3.071,13.449-10.235,14.7C-495.942,136.914-502.125,133.192-503.5,125.313Z" transform="translate(503.734 58.684)" fill="#ffd400"/>
      </g>
      <g id="Group_27" data-name="Group 27" transform="translate(78.587 729.81)">
        <path id="Path_198" data-name="Path 198" d="M-491.531,458.619l23.318-.447s-1.968,23.174-2.777,22.921-40.3-6.216-40.3-6.216l4.525-8.707C-502.618,462.359-497.159,458.778-491.531,458.619Z" transform="translate(511.287 -326.266)" fill="#fff"/>
        <path id="Path_199" data-name="Path 199" d="M-501.466,493.459c89.373,1.98,144.113,4.417,234.146-1.813,10.061-.106,15.932-.165,15.932-.165a6.954,6.954,0,0,0,6.942-6.578l-2.192-27.405-4.611,4.894s-5.977.2-16.22.561c-87.146,5.853-138.407,13.022-222.847,7.843-10.251.177-16.226.369-16.226.369-5.043.19-5.761,6.2-3.583,10.653l2.268,7.739A7.036,7.036,0,0,0-501.466,493.459Z" transform="translate(511.287 -326.915)" fill="#fff"/>
        <path id="Path_200" data-name="Path 200" d="M-266.975,424.531a7.764,7.764,0,0,0-8.779-8.726c-31.414,4.439-28.484,3.55-60.563-1.65-2.353.045-2.953-7.241-1.383-12.8,1.927-6.819-2.2-7.867-4.288-10.212,0,0-7.6-1.483-9.884,3.707l-21.834,65.357c-.614,1.4-3.983,12.851-5.263,13.677L-466.6,521.813a7.809,7.809,0,0,0-2.559,2.72l-1.817,3.228a7.794,7.794,0,0,1-7.076,3.964l-24-.879a7.794,7.794,0,0,0-7.168,4.133l-2.068,4.584,128.415,2.726c70.226,1.02,104.536-9.26,129.778-13.669a7.781,7.781,0,0,0,5.867-10.6l-23.435-57.961a7.79,7.79,0,0,1-.5-3.946Z" transform="translate(511.287 -390.951)" fill="#161615"/>
        <circle id="Ellipse_18" data-name="Ellipse 18" cx="23.791" cy="23.791" r="23.791" transform="translate(182.738 59.147)" fill="#fff"/>
        <circle id="Ellipse_19" data-name="Ellipse 19" cx="3.752" cy="3.752" r="3.752" transform="translate(171.862 134.815)" fill="#fff"/>
        <circle id="Ellipse_20" data-name="Ellipse 20" cx="3.752" cy="3.752" r="3.752" transform="translate(148.77 135.257)" fill="#fff"/>
      </g>
      <path id="Path_201" data-name="Path 201" d="M-342.886,459.619c2.211-.271,4.452-.381,6.634-.51,9.874-.583,14.281-11.187,14.281-7.272,0,0-.71,27.164-1.448,26.973-10.873-2.79-22.594-2.149-33.488-4.823-1.907-.467-1.3-1.095-.85-3.036a15.417,15.417,0,0,1,1.9-4.951,13.553,13.553,0,0,1,7.425-5.237A30.453,30.453,0,0,1-342.886,459.619Z" transform="translate(737.169 396.615)" fill="#fff"/>
      <path id="Path_202" data-name="Path 202" d="M-287.393,566.353c50.6-62.479,71.86-87,116.985-154.464,5.463-7.215,8.652-11.422,8.652-11.422a6.255,6.255,0,0,0-.856-8.559l-20.7-13.524.944,5.973s-3.148,4.36-8.528,11.844c-43.806,65.206-56.056,79.853-106.218,137.062-5.516,7.386-62.125,14.772-62.125,14.772-2.641,3.691-1.277,20.017,3.089,20.92l36.459-.977C-317.335,568.464-288.877,568.3-287.393,566.353Z" transform="translate(734.89 326.765)" fill="#fff"/>
      <path id="Path_203" data-name="Path 203" d="M-258.119,355.928a7,7,0,0,0-11.146.114C-286.282,378.914-285,376.483-308.612,393.7c-1.462,1.535-2.015-4.625-3.819-9.5a7.037,7.037,0,0,0-6.232-4.6h0a7.01,7.01,0,0,0-6.88,9.576l22.729,57.561c.5,1.275,4.637,14.805,4.358,16.146l-23.73,82.209a7.013,7.013,0,0,0,.122,3.355l.912,3.2a7.008,7.008,0,0,1-1.941,7.031l-33.627,4.113c-1.958,1.839-3.889,6.891-3.089,9.454l61.764-4.855,41.145-55.9c45.016-44.2,60.924-79.6,74.062-98.539a7.025,7.025,0,0,0-3.016-10.52l-51.882-21.677a7,7,0,0,1-2.839-2.176Z" transform="translate(735.458 302.552)" fill="#161615"/>
      <circle id="Ellipse_21" data-name="Ellipse 21" cx="21.397" cy="21.397" r="21.397" transform="translate(463.603 692.459)" fill="#fff"/>
      <path id="Path_204" data-name="Path 204" d="M-301.18,401.008l5.923-6.126,8.4,1.406-4-7.526,3.934-7.558-8.392,1.475-5.973-6.077-1.191,8.437-7.625,3.8,7.656,3.74Z" transform="translate(783.474 325.051)" fill="#161615"/>
      <path id="Path_205" data-name="Path 205" d="M-403.043,451.4l5.923-6.126,8.4,1.406-4-7.526,3.934-7.558-8.392,1.475L-403.143,427l-1.191,8.437-7.625,3.8,7.656,3.74Z" transform="translate(685.454 373.547)" fill="#161615"/>
    </g>
  </g>
</svg>
