<svg xmlns="http://www.w3.org/2000/svg" width="786.979" height="1044" viewBox="0 0 786.979 1044">
  <g id="Group_25" data-name="Group 25" transform="translate(68.146 -0.07)">
    <ellipse id="Ellipse_16" data-name="Ellipse 16" cx="344.356" cy="192.027" rx="344.356" ry="192.027" transform="matrix(0.902, -0.431, 0.431, 0.902, -68.146, 697.492)" fill="#e8e8e8" opacity="0.48" style="mix-blend-mode: darken;isolation: isolate"/>
    <path id="Path_170" data-name="Path 170" d="M326.107,325.481l62.342,77.146,22.578,75.5s-14.616,56.176-53.522,44.263-78.3-62.9-78.3-62.9l-18.469-61.759s-26.784-61.336-19.158-64.057S326.107,325.481,326.107,325.481Z" transform="translate(298.736 315.258)" fill="#d2d1d1"/>
    <path id="Path_171" data-name="Path 171" d="M127.4,352.464,53.863,419.978,21.47,491.812s8.243,58.162,49.746,52.128,88.24-50.927,88.24-50.927l26.5-58.763s35.005-57.1,27.484-60.95S127.4,352.464,127.4,352.464Z" transform="translate(86.82 341.399)" fill="#bababa"/>
    <path id="Path_172" data-name="Path 172" d="M326.107,319.944l62.342,77.146,22.578,75.5s-14.616,56.174-53.522,44.261-78.3-62.9-78.3-62.9l-18.469-61.759s-26.784-61.336-19.158-64.057S326.107,319.944,326.107,319.944Z" transform="translate(298.736 309.894)" fill="#f4f4f4"/>
    <path id="Path_173" data-name="Path 173" d="M131.178,347.1,59.156,415.3,26.763,487.135S33.8,544.75,73.941,538.1s85.952-51.957,85.952-51.957l26.5-58.763s34.682-57.241,27.484-60.95S131.178,347.1,131.178,347.1Z" transform="translate(91.948 336.207)" fill="#f4f4f4"/>
    <path id="Path_174" data-name="Path 174" d="M118.271,382.792c-3.7-.016-8.249-.847-8.5-4.877-.246-3.949,4.463-7.464,7.985-7s5.936,3.414,8.1,6.217L139.6,394.916c1.5,1.941,3.042,3.92,5.148,5.064a6.9,6.9,0,0,0,7.243-.3c2.325-1.61,3.691-5.288,2.337-7.365a5.248,5.248,0,0,0-3.788-1.906c-16.126-2.624-34.615,9.4-50.506,6.017a9.665,9.665,0,0,1-5.233-2.552,6.074,6.074,0,0,1-1.219-6.086,4.405,4.405,0,0,1,1.164-1.831c1.925-1.7,4.262-.055,5.6,1.673,7.948,10.254,12.376,24.084,22.228,32.123,2,1.63,4.44,3.036,7.174,2.382s5.4-4.3,4.323-6.82c-.6-1.4-2.067-1.969-3.455-2.367-17.827-5.117-38.661,1.752-57.308-.852-2.66-.372-5.414-1.024-7.072-3.126a6.416,6.416,0,0,1,.7-8.208,4.87,4.87,0,0,1,5.843-.484c1.656,1.051,2.693,2.908,3.609,4.765,6.221,12.638,9.494,28.506,20.694,35.751,1.748,1.13,4.138,1.945,6.084.4a5.467,5.467,0,0,0,1.577-5.654,7.094,7.094,0,0,0-3.556-3.847c-5.536-3.1-12.51-2.768-19.131-2.906A116.818,116.818,0,0,1,46.1,422.43c-1.831-.636-3.879-1.656-3.989-3.859" transform="translate(106.817 359.234)" fill="none" stroke="#d2d1d1" stroke-miterlimit="10" stroke-width="0.252"/>
    <path id="Path_175" data-name="Path 175" d="M307.557,373.766c3.351.878,7.672,1.227,8.873-2.365,1.177-3.514-2.239-7.834-5.54-8.265s-6.2,1.658-8.838,3.674l-16.735,12.783a16.586,16.586,0,0,1-5.885,3.341,6.462,6.462,0,0,1-6.485-2.018c-1.717-2.02-2.067-5.68-.339-7.233a4.914,4.914,0,0,1,3.89-.811c15.233,1.516,29.069,16.867,44.274,17.638a9.047,9.047,0,0,0,5.353-1.047,5.688,5.688,0,0,0,2.573-5.215,4.136,4.136,0,0,0-.612-1.939c-1.331-2.006-3.845-1.077-5.475.163-9.673,7.365-17.02,18.82-27.882,23.72-2.2.992-4.751,1.675-7.068.423s-3.851-5.2-2.268-7.22c.88-1.124,2.345-1.282,3.7-1.307,17.375-.329,34.58,10.919,52.092,13.061,2.5.307,5.148.38,7.157-1.122a6.013,6.013,0,0,0,1.345-7.6,4.563,4.563,0,0,0-5.174-1.849,10.546,10.546,0,0,0-4.418,3.443c-8.682,9.94-15.475,23.515-27.366,27.372-1.855.6-4.217.764-5.6-1.107a5.125,5.125,0,0,1-.063-5.5,6.634,6.634,0,0,1,4.146-2.624c5.761-1.471,12,.512,18.024,1.986a109.5,109.5,0,0,0,34.1,2.928c1.809-.136,3.91-.563,4.542-2.534" transform="translate(329.024 351.683)" fill="none" stroke="#d2d1d1" stroke-miterlimit="10" stroke-width="0.236"/>
    <path id="Path_176" data-name="Path 176" d="M398.264,537.608a53.148,53.148,0,0,1-1.628-10.437l-18.4-329.949A53.346,53.346,0,0,1,389.143,161.8c6.093-7.956-2.672-36.641,5.658-51.309C404.6,93.243,409.368,45.7,406.83.07H197.346l82.993,516.273a53.419,53.419,0,0,1-1.416,15.9l-14.079,57.834a53.421,53.421,0,0,0,4.127,36.533l24.586,49.151a53.418,53.418,0,0,0,47.775,29.52h0a53.42,53.42,0,0,0,49.37-33.017l19.279-46.651a53.439,53.439,0,0,0,2.339-33.812Z" transform="translate(257.209 0)" fill="#161b4b"/>
    <path id="Path_177" data-name="Path 177" d="M390.867.07H215.716C199.767,46.463,193.634,92.647,200.7,114.7c5.15,16.061-11.675,60.448-7.34,69.483a53.362,53.362,0,0,1,3.42,36.909L111.2,540.273a53.324,53.324,0,0,1-3.731,9.881L82.614,600.324A53.407,53.407,0,0,0,77.979,633.9l9.316,49.61a53.415,53.415,0,0,0,41.559,42.426h0a53.415,53.415,0,0,0,52.807-19.109l34.131-43.075a53.412,53.412,0,0,0,11.523-34.913l-1.937-59.491a54.417,54.417,0,0,1,2.2-16.908l145.8-386.346C369.988,79.643,386.132,29.413,390.867.07Z" transform="translate(140.677 0)" fill="#13153b"/>
    <path id="Path_178" data-name="Path 178" d="M283.135.07l-9.6,50.186L308.288,79.53,346.343.07Z" transform="translate(331.021 0)" fill="#814c28"/>
    <path id="Path_179" data-name="Path 179" d="M136.87.07l36.968,83.1L210.789,60.3,203.095.07Z" transform="translate(198.62 0)" fill="#814c28"/>
  </g>
</svg>
