<svg xmlns="http://www.w3.org/2000/svg" width="232" height="106.535" viewBox="0 0 232 106.535">
  <g id="Group_4" data-name="Group 4" transform="translate(-1036.243 -404.064)">
    <g id="Group_1" data-name="Group 1" transform="translate(1036.243 404.064)">
      <path id="Path_1" data-name="Path 1" d="M1147.355,442.463c0,.43,0,1.291-.431,1.333-3.015,2.45-6.029,4.468-8.613,6.872q-2.369,1.523-4.738,3.043a29.812,29.812,0,0,1-4.305,3.426c-1.724,1.024-3.015,2.438-4.739,3.459a28.99,28.99,0,0,1-5.168,2.629,8.708,8.708,0,0,1-3.444,1.171l-2.153.19a5.264,5.264,0,0,1-3.015-1.03,5.581,5.581,0,0,1-2.153-2.4,7.287,7.287,0,0,1-.432-2.549,9.828,9.828,0,0,1,.432-3.912c0-1.292.43-2.19.429-3.051a6.576,6.576,0,0,0,.863-2.657,28.8,28.8,0,0,0,2.152-5.353c1.292-3.127,3.016-6.293,4.307-9.425a3.634,3.634,0,0,1,.861-1.8c0-.862,1.292-3.56-1.291-2.468-.431.468-1.293.976-1.724,1.444-.861.075-1.291.544-2.153,1.481-1.291.973-2.152,2.339-3.444,3.31-.861,1.365-2.154,2.766-3.015,4.128a68.059,68.059,0,0,0-6.46,8.7c-3.876,5.9-7.322,11.752-10.766,18.019q-2.585,4.7-5.168,9.386l-.861,2.208a33.285,33.285,0,0,1-3.015,4.922c-.431.458-3.015,1.9-5.167.294-1.724-1.63-1.724-2.062-1.724-2.494-.43-.408-.43-.408-.43-.839v-2.153l.861-3.49c.43-3.468,1.292-6.959,1.722-10.428.861-3.493,1.292-6.961,2.153-10.456q2.154-10.243,4.307-20.5,1.077-5.019,2.154-10.04v-.862c-2.154,2.291-4.307,5.005-6.46,7.711s-4.307,5.4-6.029,8.075c-2.154,3.122-4.307,5.8-6.029,8.891-2.154,3.106-3.875,5.757-6.029,8.846-1.724,3.075-3.876,6.155-5.6,8.784-1.291,1.758-2.153,3.069-3.444,4.821-.432.439-.861,1.309-1.723,2.188l-1.291,1.314a5.443,5.443,0,0,1-1.292.881l-.431.006v.431l-.861.011a1.594,1.594,0,0,1-1.293.447c-.861.009-1.722.446-2.583.022a1.484,1.484,0,0,1-.861-.426c-.431-.429-.861-.427-.861-.857a5.907,5.907,0,0,1-1.724-1.289,6.406,6.406,0,0,1-.43-2.583v-2.585c0-.43.43-.861.43-1.722a6.144,6.144,0,0,1,.861-2.586,8.938,8.938,0,0,0,.862-2.586c1.722-3.453,3.015-6.908,4.305-9.936q2.154-4.761,4.308-9.536,1.076-2.387,2.153-4.778c.861-1.31,1.292-3.042,2.154-4.355a7.447,7.447,0,0,0,.861-2.175,6.251,6.251,0,0,0,.861-2.607c.432-.442.432-1.3.861-1.746,0-.861.432-1.3.432-1.734v-.861A5.489,5.489,0,0,1,1060.36,419a4.322,4.322,0,0,1,3.446,4.172v3.876c-.432.879-.432,2.171-.861,3.049a11109.651,11109.651,0,0,0-1.724,5.236,70.636,70.636,0,0,1-4.307,10.055c-.861,1.32-1.291,2.626-2.152,3.943a50.288,50.288,0,0,0,4.305-5.737q3.23-4.2,6.46-8.437c2.153-3.109,3.876-5.773,6.029-8.9s4.307-5.825,6.461-8.965c1.293-1.368,2.153-2.712,3.876-4.541.431-.888,1.292-1.373,2.584-2.318a10.348,10.348,0,0,1,2.153-1.433l1.723-.117.861-.059.43-.03.431-.03a6.788,6.788,0,0,0,2.154.707c.43.4.429.83.861,1.229s.431.831.861,1.229v1.292c0,.43,0,.861.431.829v5.168c-.431,1.754-.432,3.478-.861,5.232a89.432,89.432,0,0,1-1.723,10.462c-1.292,6.552-3.015,13.133-4.306,19.681v-.431c1.722-3.131,3.876-5.866,6.029-9.039,2.154-2.743,4.737-5.954,6.891-8.708a75.6,75.6,0,0,1,7.751-8.387,21.778,21.778,0,0,1,4.739-3.851c1.291-.544,2.153-1.052,3.444-1.6l2.153-.193a5.325,5.325,0,0,1,2.585.2,1.357,1.357,0,0,1,.861.352c.429-.039.429.392.86.352a.379.379,0,0,0,.432.39,8.268,8.268,0,0,1,1.722,1.994,6.613,6.613,0,0,1,.861,2.073c0,.861,0,1.722,0,2.154.431,1.252,0,2.584,0,3.445a6.717,6.717,0,0,1-.861,3.1,40.252,40.252,0,0,1-3.876,10.693l-2.154,4.5c-.431,1.762-1.293,3.131-1.724,4.462a.468.468,0,0,1-.429.47l.861-.078c1.292-.547,3.014-.7,4.736-1.294a17.139,17.139,0,0,1,4.739-2.163,202.432,202.432,0,0,0,18.519-10.833C1146.063,441.728,1146.924,442.074,1147.355,442.463Zm-31.438,14.181-.432.038Z" transform="translate(-1036.243 -406.321)" fill="#fff7ea"/>
      <path id="Path_2" data-name="Path 2" d="M1351.54,439.587c-2.154.478-4.738,1.41-6.891,1.912q-2.586.729-5.168,1.476c-.432.879-1.293,2.2-1.724,3.084-1.291,2.208-2.153,4.4-3.875,6.631a53.143,53.143,0,0,1-4.307,5.81,32.408,32.408,0,0,1-4.737,5.856,25.508,25.508,0,0,1-6.891,4.726,8.807,8.807,0,0,1-3.876,1.979,3.386,3.386,0,0,1-2.154.58l-1.292.091-.431.031-.43.031a19.409,19.409,0,0,1-4.738-.08,18.563,18.563,0,0,1-4.306-1.819,9.049,9.049,0,0,1-3.446-3.6,7.046,7.046,0,0,1-1.723-4.165,17.93,17.93,0,0,1-.861-8.111,25.389,25.389,0,0,1,1.291-7.859c.432-2.619,1.724-4.879,2.585-7.533l.43-.465c-3.445,1.139-6.89,2.721-10.336,3.454-1.722.582-3.876,1.2-6.029,1.829l-.861.078q-1.292,2.056-2.583,4.112a54.427,54.427,0,0,1-4.307,5.138,59.868,59.868,0,0,1-5.168,5.228,35.083,35.083,0,0,1-6.46,4.068,10.979,10.979,0,0,1-3.445,1.2c-.861.084-1.292.557-2.154.642l-.861.085-.861.084a11.706,11.706,0,0,1-3.877-.049,11.965,11.965,0,0,1-3.876-.479,15.442,15.442,0,0,1-3.876-1.771,10.036,10.036,0,0,1-3.015-3.148,16.235,16.235,0,0,1-1.722-4.138,14.208,14.208,0,0,1-.432-4.265,44.006,44.006,0,0,1,2.154-7.962,24.116,24.116,0,0,1,4.737-6.5,7.769,7.769,0,0,1,3.446-2.493c0-.431.43-.474,1.292-.989a10.861,10.861,0,0,1-.431-6.418,19.742,19.742,0,0,1,4.307-7.746,6.655,6.655,0,0,1,3.015-2.879,15.03,15.03,0,0,1,3.015-2.449c1.292-.557,2.154-1.071,3.445-1.628a10.961,10.961,0,0,1,3.446-1.195c1.292-.555,2.154-.638,3.446-1.191l1.722-.164,1.722-.162q1.939-.182,3.877-.362c1.291.31,2.583.192,3.876.937a9.009,9.009,0,0,1,3.876,2.235,15.6,15.6,0,0,1,2.153,3.686,14.436,14.436,0,0,1,.861,7.246,18.708,18.708,0,0,1-1.292,7,26.954,26.954,0,0,1-2.154,6.22,6.641,6.641,0,0,0-.861,2.662,7.651,7.651,0,0,1,3.015-.7,74.029,74.029,0,0,0,15.074-5.56,13.733,13.733,0,0,1,3.445-3.278v-.43a13.347,13.347,0,0,1,1.722-9.172c0-.861.431-1.324.862-2.216l.861-.924c0-.431.43-.462.43-.892.862-.925,2.153-2.306,3.015-3.228,1.292-.95,2.153-1.869,3.446-2.815.861-.487,1.292-.515,1.722-.972.861-.486,1.292-.513,1.724-.97a51.962,51.962,0,0,1,7.752-2.6l1.722-.091c.862-.045,1.723-.087,2.153-.108a17.165,17.165,0,0,1,4.739.211,6.52,6.52,0,0,1,4.306,1.979,9.621,9.621,0,0,1,3.446,3.754c.431,1.278,1.292,2.543,1.292,3.836a16.024,16.024,0,0,1,.43,4.292,38.312,38.312,0,0,1-.861,7.349,46.02,46.02,0,0,1-1.722,7.378c-.431,1.736-1.293,3.059-1.722,4.8a3.987,3.987,0,0,0,2.152-.5,38.56,38.56,0,0,0,6.46-1.909,40.694,40.694,0,0,0,6.461-2.278c2.153-.892,3.876-1.771,6.029-2.642a1.924,1.924,0,1,1,1.722,3.44C1360.153,435.992,1355.847,437.769,1351.54,439.587Zm-78.382,4.738a28.193,28.193,0,0,1-10.336-.731,14.36,14.36,0,0,1-6.46-3.243,8.153,8.153,0,0,1-2.154-1.51.474.474,0,0,0-.43.474,7.482,7.482,0,0,0-1.724,1.892,19.779,19.779,0,0,0-2.153,4.088c-.43,1.765-.861,3.1-1.291,4.434,0,1.722,0,2.584.861,3.359,0,.431.43.82.43,1.25.431.389.862.346,1.723.691a12.184,12.184,0,0,0,4.307.438l.861-.085.43-.042,1.292-.127a19.934,19.934,0,0,1,2.154-.642,26.029,26.029,0,0,0,4.737-2.614A34.373,34.373,0,0,0,1273.159,444.325Zm-13.351-13.786a4.747,4.747,0,0,0,1.722,3.276,24.169,24.169,0,0,0,3.876,3.069,29.292,29.292,0,0,0,10.767,1.989l.861-.08a36.187,36.187,0,0,0,3.015-5.447,26.309,26.309,0,0,0,1.722-5.326,12.322,12.322,0,0,0,.861-5.246c0-2.153,0-3.446-.861-4.659,0-.432-.43-.822-.861-1.214a2.023,2.023,0,0,0-1.722-.7c-.861-.352-2.585-.192-4.307-.031a1.69,1.69,0,0,0-.861.512c-.861.081-1.292.122-1.724.593-.861.082-1.722.595-2.583.678-1.722,1.026-3.015,1.581-4.737,2.609a13.37,13.37,0,0,0-3.446,3.35,15.014,15.014,0,0,0-2.153,3.225A9.144,9.144,0,0,0,1259.808,430.54Zm71.921,13.21a29.946,29.946,0,0,1-8.612-.4,12.345,12.345,0,0,1-3.877-.625c-.43-.4-1.291-.349-1.722-.751-.861-.375-1.292-.347-1.722-.749-.861-.372-1.293-.774-1.722-.745-.862-.8-1.292-.773-1.724-1.174a16.941,16.941,0,0,1-2.583-2.832c-1.292,1.817-1.724,3.571-2.585,5.357-1.723,4-3.015,7.981-3.015,11.856a12.265,12.265,0,0,0,0,5.6,2.054,2.054,0,0,0,.861,1.658c.432.828.862,1.227.862,1.657.43.4,1.291.334,1.722.733q1.292-.1,2.584-.188v.432l.431-.031.431-.031a1.679,1.679,0,0,1,1.291-.522c.861-.06,1.724-.549,2.585-.607,1.722-.977,3.015-2.353,4.737-3.322,1.722-1.832,3.446-3.225,4.737-4.591q1.939-2.694,3.877-5.383A38.9,38.9,0,0,0,1331.728,443.75Zm-15.5-12.454c.432,1.694,1.723,2.9,3.015,4.113,1.723,1.184,3.446,1.51,5.168,2.272a17.148,17.148,0,0,0,6.46.944c.861-.043,2.153-.106,3.446-.165a39.18,39.18,0,0,0,3.015-7.454,32.838,32.838,0,0,0,1.722-6.1c0-2.153.432-4.324,0-6.46a8.417,8.417,0,0,0-1.292-4.685c-.43-.412-.861-1.256-1.291-1.238-.431-.411-.863-.392-1.724-.785-.861.039-1.722.08-2.153.1a2.69,2.69,0,0,1-1.722.516c-.43.021-.861.473-1.292.5a22.492,22.492,0,0,0-5.6,2.46,19.147,19.147,0,0,0-4.738,3.3,12.737,12.737,0,0,0-3.015,3.641C1314.933,425.352,1314.5,428.4,1316.224,431.3Z" transform="translate(-1133.623 -404.064)" fill="#fff7ea"/>
    </g>
    <g id="Group_2" data-name="Group 2" transform="translate(1064.988 496.768)">
      <path id="Path_3" data-name="Path 3" d="M1094.608,594.456h1.808V583.967h-3.089v2.207h-1.808v-3.847h11.709v3.847h-1.808v-2.207h-3.089v10.489h1.807v1.7h-5.528Z" transform="translate(-1091.518 -582.327)" fill="#fff7ea"/>
      <path id="Path_4" data-name="Path 4" d="M1135.816,594.456h1.681V584.03h-1.681v-1.7h5.36v1.7h-1.766v4.246h7.126V584.03h-1.766v-1.7h5.36v1.7h-1.681v10.426h1.681v1.7h-5.36v-1.7h1.766v-4.52h-7.126v4.52h1.766v1.7h-5.36Z" transform="translate(-1112.779 -582.327)" fill="#fff7ea"/>
      <path id="Path_5" data-name="Path 5" d="M1185.489,594.456h1.681V584.03h-1.681v-1.7h10.152v3.616h-1.807v-1.934h-4.751V588.3h4.372v1.639h-4.372v4.541h4.751v-1.934h1.828v3.615h-10.173Z" transform="translate(-1136.62 -582.327)" fill="#fff7ea"/>
      <path id="Path_6" data-name="Path 6" d="M1227.724,594.456h1.681V584.03h-1.681v-1.7h5.3c3.111,0,5.213,1.451,5.213,4.078a3.974,3.974,0,0,1-2.817,3.784l2.564,4.267h1.619v1.7h-2.922l-3.132-5.486c-.273.021-.546.042-.82.042-.5,0-1.051-.021-1.408-.042v3.784h1.766v1.7h-5.36Zm8.555-7.988c0-1.618-1.325-2.438-3.364-2.438h-1.6v5c.357.021.84.042,1.534.042C1234.829,589.075,1236.279,588.129,1236.279,586.468Z" transform="translate(-1156.892 -582.327)" fill="#fff7ea"/>
      <path id="Path_7" data-name="Path 7" d="M1270.324,594.456h1.261l3.847-10.447H1273.9v-1.682h6.937v1.682h-1.556l3.847,10.447h1.282v1.7h-4.918v-1.681h1.6l-1.03-2.922h-5.465l-1.031,2.922h1.682v1.681h-4.919Zm9.186-4.5-2.186-6.032-2.186,6.032Z" transform="translate(-1177.338 -582.327)" fill="#fff7ea"/>
      <path id="Path_8" data-name="Path 8" d="M1318.46,594.456h1.682V584.03h-1.682v-1.7h5.423c2.922,0,5.171,1.7,5.171,4.435,0,2.964-2.144,4.583-5.3,4.583-.714,0-1.345-.021-1.7-.042v3.153h1.807v1.7h-5.4Zm8.639-7.693c0-1.7-1.408-2.732-3.258-2.732h-1.786v5.591c.357.021.925.042,1.828.042C1325.88,589.663,1327.1,588.57,1327.1,586.762Z" transform="translate(-1200.441 -582.327)" fill="#fff7ea"/>
      <path id="Path_9" data-name="Path 9" d="M1362.311,594.456h1.871v-3.721l-4.015-6.7h-1.45v-1.7h4.9v1.7h-1.324l2.88,5.086,2.9-5.086h-1.408v-1.7h4.9v1.7h-1.451l-4.015,6.684v3.742h1.87v1.7h-5.654Z" transform="translate(-1219.763 -582.327)" fill="#fff7ea"/>
    </g>
    <g id="Group_3" data-name="Group 3" transform="translate(1255.778 404.392)">
      <path id="Path_10" data-name="Path 10" d="M1459.635,409.087h.735v-3.532h-1.093v.862h-.883v-1.723h4.982v1.723h-.9v-.862H1461.4v3.532h.735v.883h-2.5Zm4.393,0h.694l.169-3.511h-.757v-.882h2l1.324,3.006,1.3-3.006h2v.882h-.777l.168,3.511h.714v.883h-2.333v-.883h.652l-.1-2.943-1.408,3.027h-.463l-1.429-3.027-.1,2.943h.672v.883h-2.313Z" transform="translate(-1458.395 -404.694)" fill="#fff7ea"/>
    </g>
  </g>
</svg>
