<svg xmlns="http://www.w3.org/2000/svg" width="15.262" height="32.704" viewBox="0 0 15.262 32.704">
  <path id="Path_110" data-name="Path 110" d="M1036.8,707.9a1.091,1.091,0,0,0,1.09-1.09V678.914l4.68,4.68a1.09,1.09,0,0,0,1.542-1.542l-6.54-6.54a1.069,1.069,0,0,0-.167-.137.87.87,0,0,0-.081-.044.989.989,0,0,0-.107-.056.953.953,0,0,0-.109-.034.923.923,0,0,0-.095-.028,1.1,1.1,0,0,0-.427,0,.942.942,0,0,0-.094.028.967.967,0,0,0-.109.034.928.928,0,0,0-.106.056.863.863,0,0,0-.081.044,1.111,1.111,0,0,0-.167.137l-6.54,6.54a1.09,1.09,0,0,0,1.541,1.542l4.68-4.68v27.892A1.09,1.09,0,0,0,1036.8,707.9Z" transform="translate(-1029.168 -675.193)" fill="#fff7ea"/>
</svg>
